# xmcd CD database file
#
# Track frame offsets:
#	182
#	3295
#	7845
#	14135
#	23137
#	32477
#	41087
#	52942
#	65220
#	76570
#	84195
#	93952
#	104010
#	117652
#	126492
#	136172
#	148627
#	164020
#	177285
#	183510
#	189985
#	198470
#	205787
#	213740
#	224417
#	230047
#	235940
#	244270
#	251607
#	259250
#	269882
#	276840
#	286007
#	293672
#	301665
#	309565
#	317375
#
# Disc length: 4341 seconds
#
# Revision: 0
# Processed by: cddbd v1.5.2PL0 Copyright (c) Steve Scherf et al.
# Submitted via: CDex 1.70beta2
#
DISCID=1f10f325
DTITLE=Simon Fraser University Pipe Band - A High Cut Above
DYEAR=1991
DGENRE=bagpipes
TTITLE0=Pas de Basques
TTITLE1=Pas de Basques and high cuts
TTITLE2=Highland fling 4 step
TTITLE3=Highland fling 6 step "Fast"
TTITLE4=Highland fling 6 step "Slow"
TTITLE5=Sword 2 and 1
TTITLE6=Sword 3 and 1 "Fast"
TTITLE7=Sword 3 and 1 "Slow"
TTITLE8=Sword 2 and 2
TTITLE9=Seann truibhas 3 and 1
TTITLE10=Seann truibhas 4 and 2 "Fast"
TTITLE11=Seann truibhas 4 and 2 "Slow"
TTITLE12=Seann truibhas 6 and 2
TTITLE13=Strathspey and Highland reel "Fast"
TTITLE14=Strathspey and Highland reel "Slow"
TTITLE15=Strathspey and half Tulloch
TTITLE16=Strathspey, Highland reel and half Tulloch
TTITLE17=Reel of Tulloch
TTITLE18=Irish jig 4 step "Fast"
TTITLE19=Irish jig 4 step "Slow"
TTITLE20=Irish jig 6 step
TTITLE21=Sailor's hornpipe 4 step "Fast"
TTITLE22=Sailor's hornpipe 4 step "Slow"
TTITLE23=Sailor's hornpipe 6 step
TTITLE24=Scottish lilt 4 step "Fast"
TTITLE25=Scottish lilt 4 step "Slow"
TTITLE26=Scottish lilt 6 step
TTITLE27=Flora MacDonald's fancy 4 step "Fast"
TTITLE28=Flora MacDonald's fancy 4 step "Slow"
TTITLE29=Flora MacDonald's fancy 6 step
TTITLE30=Wilt thou go to barracks Johnny 4 step
TTITLE31=Wilt thou go to barracks Johnny 6 step
TTITLE32=Highland laddie 4 step
TTITLE33=Blue bonnets 4 step
TTITLE34=Village maid 4 step
TTITLE35=Scotch measure 4 step
TTITLE36=Earl of Errol 4 step
EXTD=YEAR: 1991
EXTT0=
EXTT1=
EXTT2=
EXTT3=
EXTT4=
EXTT5=
EXTT6=
EXTT7=
EXTT8=
EXTT9=
EXTT10=
EXTT11=
EXTT12=
EXTT13=
EXTT14=
EXTT15=
EXTT16=
EXTT17=
EXTT18=
EXTT19=
EXTT20=
EXTT21=
EXTT22=
EXTT23=
EXTT24=
EXTT25=
EXTT26=
EXTT27=
EXTT28=
EXTT29=
EXTT30=
EXTT31=
EXTT32=
EXTT33=
EXTT34=
EXTT35=
EXTT36=
PLAYORDER=
